#!OML:ASF F:\VICON\USERDATA\INSTALL\rory3\rory3.ASF
:FULLY-SPECIFIED
:DEGREES
2467
root 0.37164 17.4584 0.408866 6.6995 -4.29887 0.602778
lowerback 0.66525 -1.00778 2.24579
upperback -1.41919 -1.27334 2.27702
thorax -1.82557 -0.651308 1.10543
lowerneck -11.3705 -9.81371 -14.523
upperneck 17.481 -13.4437 12.9772
head 9.255 -6.17073 5.12718
rclavicle 2.27608e-014 1.59028e-015
rhumerus -35.5238 -11.7516 -71.1978
rradius 40.3362
rwrist 29.2571
rhand 2.70823 15.031
rfingers 7.12502
rthumb 28.1817 -12.8705
lclavicle 2.27608e-014 1.59028e-015
lhumerus -31.553 10.4319 83.7471
lradius 8.74326
lwrist -25.4637
lhand -4.79245 25.2473
lfingers 7.12502
lthumb 20.9928 54.1312
rfemur -5.52631 12.9248 15.7797
rtibia 9.58707
rfoot -10.4236 -9.89788
rtoes -14.2155
lfemur -7.44763 -13.8935 -18.907
ltibia 14.4131
lfoot -12.9426 13.3774
ltoes -20.242
2468
root 0.354103 17.4589 0.430097 6.63102 -3.83324 0.489004
lowerback 0.45455 -1.00992 2.16909
upperback -1.52003 -1.28217 2.2821
thorax -1.80889 -0.654817 1.15085
lowerneck -11.2613 -9.85989 -14.6601
upperneck 17.6125 -13.5356 13.0744
head 9.31217 -6.21759 5.17441
rclavicle -6.4605e-015 -1.35174e-014
rhumerus -36.0461 -11.7895 -71.88
rradius 38.4314
rwrist 28.5268
rhand 2.45309 14.6343
rfingers 7.12502
rthumb 27.9378 -13.3072
lclavicle -6.4605e-015 -1.35174e-014
lhumerus -31.7157 10.4543 83.7256
lradius 8.40422
lwrist -25.272
lhand -5.28214 25.1577
lfingers 7.12502
lthumb 20.5223 54.093
rfemur -4.87942 12.5587 16.0688
rtibia 8.873
rfoot -10.2425 -9.88545
rtoes -13.8182
lfemur -7.29033 -14.3564 -18.7047
ltibia 14.333
lfoot -12.9556 13.4753
ltoes -20.6127
2469
root 0.33758 17.4597 0.45332 6.57666 -3.43037 0.544669
lowerback 0.151809 -0.95711 1.95624
upperback -1.60636 -1.22372 2.22045
thorax -1.72429 -0.622901 1.2006
lowerneck -11.1647 -9.965 -14.8513
upperneck 17.8002 -13.7157 13.213
head 9.41282 -6.30421 5.23079
rclavicle 1.59028e-015 2.22639e-014
rhumerus -36.5855 -11.9525 -72.4786
rradius 36.5667
rwrist 27.9651
rhand 2.08694 14.6497
rfingers 7.12502
rthumb 27.5877 -13.3483
lclavicle 1.59028e-015 2.22639e-014
lhumerus -31.9417 10.3399 83.7049
lradius 8.26923
lwrist -25.0221
lhand -5.52438 24.9701
lfingers 7.12502
lthumb 20.2895 53.9304
rfemur -4.21509 12.2273 16.145
rtibia 8.06579
rfoot -9.96576 -9.90669
rtoes -13.8289
lfemur -7.15977 -14.7798 -18.6975
ltibia 14.2754
lfoot -13.0389 13.5965
ltoes -21.0814
2470
root 0.31934 17.4611 0.47762 6.52031 -3.0013 0.319866
lowerback -0.123804 -0.897046 2.0217
upperback -1.71783 -1.14927 2.22691
thorax -1.68566 -0.586683 1.16577
lowerneck -11.0082 -10.0808 -15.0397
upperneck 18.0181 -13.9219 13.3378
head 9.5166 -6.40644 5.28039
rclavicle -3.67752e-015 1.27222e-014
rhumerus -37.0726 -12.2581 -73.0709
rradius 34.7345
rwrist 27.2757
rhand 1.57766 14.6467
rfingers 7.12502
rthumb 27.1006 -13.4281
lclavicle -3.67752e-015 1.27222e-014
lhumerus -32.3523 10.1678 83.6216
lradius 8.37429
lwrist -24.6771
lhand -5.79284 24.9883
lfingers 7.12502
lthumb 20.0315 53.9757
rfemur -3.52194 11.907 16.5506
rtibia 7.2797
rfoot -9.74013 -9.88904
rtoes -13.4809
lfemur -6.99189 -15.1914 -18.3669
ltibia 14.179
lfoot -13.3285 13.5175
ltoes -19.5168
2471
root 0.302294 17.4611 0.502541 6.3934 -2.53618 0.117253
lowerback -0.347263 -0.910651 2.03167
upperback -1.77121 -1.17349 2.24319
thorax -1.61476 -0.598617 1.17376
lowerneck -10.97 -10.1401 -15.1258
upperneck 18.2394 -14.0425 13.4189
head 9.61914 -6.46084 5.30774
rclavicle -1.32192e-014 2.38542e-014
rhumerus -37.4389 -12.5356 -73.7004
rradius 33.0224
rwrist 26.7438
rhand 1.20932 14.6859
rfingers 7.12502
rthumb 26.7482 -13.4432
lclavicle -1.32192e-014 2.38542e-014
lhumerus -32.5202 10.1837 83.5178
lradius 8.21224
lwrist -24.428
lhand -6.19666 25.0263
lfingers 7.12502
lthumb 19.6433 54.0538
rfemur -2.72263 11.5474 16.9361
rtibia 6.4353
rfoot -9.48007 -9.88237
rtoes -12.9062
lfemur -6.73802 -15.6472 -18.0951
ltibia 14.0806
lfoot -13.5653 13.523
ltoes -18.4224
2472
root 0.289253 17.461 0.525927 6.28692 -2.2098 0.0362681
lowerback -0.526971 -0.897857 1.94608
upperback -1.87293 -1.1605 2.21804
thorax -1.61711 -0.591308 1.19374
lowerneck -10.9385 -10.1782 -15.2679
upperneck 18.575 -14.1338 13.4905
head 9.76242 -6.50513 5.34705
rclavicle 3.42904e-015 2.3059e-014
rhumerus -37.9573 -12.7941 -74.2947
rradius 31.5378
rwrist 26.5082
rhand 1.6841 14.4351
rfingers 7.12502
rthumb 27.2024 -13.6237
lclavicle 3.42904e-015 2.3059e-014
lhumerus -32.5607 10.2555 83.4361
lradius 7.64708
lwrist -24.1922
lhand -6.83654 24.8285
lfingers 7.12502
lthumb 19.028 53.9178
rfemur -1.90477 11.3005 17.1156
rtibia 5.38556
rfoot -9.16047 -9.88635
rtoes -12.9697
lfemur -6.50776 -15.9846 -17.9993
ltibia 14.0184
lfoot -13.5028 13.619
ltoes -19.5033
2473
root 0.278426 17.4605 0.549491 6.24976 -1.95984 -0.0483495
lowerback -0.767448 -0.850944 1.89891
upperback -1.99205 -1.10347 2.17066
thorax -1.60477 -0.562677 1.16829
lowerneck -10.9887 -10.2595 -15.4678
upperneck 19.0499 -14.2992 13.6303
head 9.99414 -6.57675 5.40699
rclavicle -7.0817e-015 1.90833e-014
rhumerus -38.5027 -13.1173 -74.8802
rradius 30.1557
rwrist 26.0992
rhand 2.62301 14.0568
rfingers 7.12502
rthumb 28.1003 -13.8582
lclavicle -7.0817e-015 1.90833e-014
lhumerus -32.5944 10.2953 83.3427
lradius 7.0515
lwrist -23.9574
lhand -7.43866 24.3935
lfingers 7.12502
lthumb 18.4489 53.5386
rfemur -1.19941 11.1243 17.2559
rtibia 4.3671
rfoot -8.80935 -9.89884
rtoes -13.819
lfemur -6.31399 -16.2458 -17.9072
ltibia 13.8802
lfoot -13.2571 13.7806
ltoes -21.3126
2474
root 0.269636 17.4595 0.574536 6.16542 -1.70088 -0.0701211
lowerback -1.01193 -0.782183 1.90818
upperback -2.07613 -1.01916 2.0334
thorax -1.55695 -0.521766 1.01874
lowerneck -10.9769 -10.3682 -15.5534
upperneck 19.3896 -14.5176 13.7602
head 10.1673 -6.66941 5.43666
rclavicle -2.21645e-014 5.56597e-015
rhumerus -39.0125 -13.5413 -75.5682
rradius 28.8299
rwrist 25.4542
rhand 3.19528 13.7062
rfingers 7.12502
rthumb 28.6471 -14.1177
lclavicle -2.21645e-014 5.56597e-015
lhumerus -32.6735 10.1967 83.1693
lradius 6.74003
lwrist -23.6512
lhand -7.86255 24.1235
lfingers 7.12502
lthumb 18.0411 53.3067
rfemur -0.329592 10.9291 17.3137
rtibia 3.13779
rfoot -8.29771 -9.87571
rtoes -14.0254
lfemur -6.05015 -16.5284 -17.9205
ltibia 13.724
lfoot -13.2191 13.8655
ltoes -21.6006
2475
root 0.258159 17.4591 0.598334 6.02011 -1.45461 -0.0911733
lowerback -1.1872 -0.710848 1.81946
upperback -2.10974 -0.929489 1.96144
thorax -1.49306 -0.475963 0.991989
lowerneck -10.9861 -10.4766 -15.718
upperneck 19.6351 -14.7067 13.897
head 10.3149 -6.75307 5.48386
rclavicle 4.09993e-015 1.59028e-015
rhumerus -39.4362 -13.854 -76.1926
rradius 27.7009
rwrist 24.8448
rhand 3.54781 13.5305
rfingers 7.12502
rthumb 28.9839 -14.236
lclavicle 4.09993e-015 1.59028e-015
lhumerus -32.7411 10.1683 83.1076
lradius 6.59353
lwrist -23.4325
lhand -7.75969 24.2651
lfingers 7.12502
lthumb 18.1401 53.4392
rfemur 1.41098 10.7292 17.312
rtibia 0.342921
rfoot -7.06882 -9.71767
rtoes -13.7238
lfemur -5.74032 -16.8046 -17.9422
ltibia 13.6027
lfoot -13.4683 13.8029
ltoes -20.824
2476
root 0.246608 17.4562 0.622984 5.81835 -1.10704 -0.176774
lowerback -1.37292 -0.664169 1.75128
upperback -2.08287 -0.873635 1.94741
thorax -1.36061 -0.446514 1.01281
lowerneck -11.1064 -10.5989 -15.8937
upperneck 19.9748 -14.9014 13.9981
head 10.518 -6.83678 5.51579
rclavicle -2.55935e-015 -1.03368e-014
rhumerus -39.765 -14.2132 -76.7052
rradius 26.7735
rwrist 24.307
rhand 3.71237 13.4818
rfingers 7.12502
rthumb 29.1411 -14.2576
lclavicle -2.55935e-015 -1.03368e-014
lhumerus -32.6713 10.1692 83.1443
lradius 6.24486
lwrist -23.4577
lhand -7.06851 24.3799
lfingers 7.12502
lthumb 18.8049 53.4909
rfemur 1.98761 10.4696 17.5279
rtibia -6.36111e-015
rfoot -7.1021 -9.80241
rtoes -13.2048
lfemur -5.37698 -17.1691 -17.886
ltibia 13.4857
lfoot -13.6157 13.8094
ltoes -20.3143
2477
root 0.234846 17.4537 0.645696 5.68014 -0.777123 -0.268555
lowerback -1.50806 -0.614107 1.68543
upperback -2.16636 -0.808645 1.92392
thorax -1.37021 -0.41339 1.02477
lowerneck -11.0776 -10.6879 -16.0404
upperneck 20.2653 -15.0759 14.1167
head 10.6721 -6.91526 5.55883
rclavicle 1.16724e-014 1.03368e-014
rhumerus -40.2706 -15.1596 -76.7076
rradius 26.1355
rwrist 23.9004
rhand 3.08395 13.4352
rfingers 7.12502
rthumb 28.5408 -14.4066
lclavicle 1.16724e-014 1.03368e-014
lhumerus -32.7406 10.1359 83.1167
lradius 5.90524
lwrist -23.3919
lhand -6.59816 24.3217
lfingers 7.12502
lthumb 19.2573 53.3882
rfemur 2.30134 10.229 17.7569
rtibia -6.36111e-015
rfoot -7.26041 -9.86528
rtoes -13.0972
lfemur -5.12696 -17.5112 -17.7843
ltibia 13.4072
lfoot -13.7185 13.8336
ltoes -20.2074
